<?xml version="1.0" encoding="utf-8"?>
<!-- Generator: Adobe Illustrator 17.0.0, SVG Export Plug-In . SVG Version: 6.00 Build 0)  -->
<!DOCTYPE svg PUBLIC "-//W3C//DTD SVG 1.1//EN" "http://www.w3.org/Graphics/SVG/1.1/DTD/svg11.dtd">
<svg version="1.1" id="Layer_1" xmlns="http://www.w3.org/2000/svg" xmlns:xlink="http://www.w3.org/1999/xlink" x="0px" y="0px"
	 width="32px" height="32px" viewBox="0 0 100 100" enable-background="new 0 0 100 100" xml:space="preserve">
<path d="M83.833,30.333V14H67.5v7.167H35.667V14H19.333v16.333H26.5v31.833h-7.167V78.5h16.333v-7.167H67.5V78.5h16.333V62.167
	h-7.166V30.333H83.833z M69.5,16h12.333v12.333h-5.166H69.5v-7.167V16z M21.333,28.333V16h12.333v5.167v7.167H26.5H21.333z
	 M33.667,76.5H21.333V64.167H26.5h7.167v7.166V76.5z M81.833,64.167V76.5H69.5v-5.167v-7.166h7.167H81.833z M74.667,62.167H67.5
	v7.166H35.667v-7.166H28.5V30.333h7.167v-7.167H67.5v7.167h7.167V62.167z"/>
</svg>
